<svg width="30" height="31" viewBox="0 0 30 31" fill="none" xmlns="http://www.w3.org/2000/svg">
<path d="M18.812 4.6911C22.2837 5.50547 24.9945 8.21626 25.8089 11.688C26.397 14.1953 26.397 16.8047 25.8089 19.312C24.9945 22.7837 22.2837 25.4945 18.812 26.3089C16.3047 26.897 13.6953 26.897 11.188 26.3089C7.71626 25.4945 5.00546 22.7837 4.19109 19.312C3.60297 16.8047 3.60297 14.1953 4.19109 11.688C5.00546 8.21627 7.71625 5.50547 11.188 4.6911C13.6953 4.10297 16.3047 4.10297 18.812 4.6911Z" stroke="#618CFA" stroke-width="1.5"/>
<path d="M18.812 4.6911C16.3047 4.10297 13.6953 4.10297 11.188 4.6911C7.71625 5.50547 5.00546 8.21627 4.19109 11.688C3.60297 14.1953 3.60297 16.8047 4.19109 19.312C5.00546 22.7837 7.71626 25.4945 11.188 26.3089C13.6953 26.897 16.3047 26.897 18.812 26.3089C22.2837 25.4945 24.9945 22.7837 25.8089 19.312" stroke="white" stroke-width="1.5" stroke-linecap="round"/>
<path d="M17.2097 13.2903L12.7903 17.7097M17.2097 17.7097L12.7903 13.2903" stroke="#618CFA" stroke-width="1.5" stroke-linecap="round"/>
</svg>
