<svg width="30" height="31" viewBox="0 0 30 31" fill="none" xmlns="http://www.w3.org/2000/svg">
<path d="M18.812 4.69113C22.2837 5.5055 24.9945 8.21629 25.8089 11.6881C26.397 14.1953 26.397 16.8047 25.8089 19.312C24.9945 22.7838 22.2837 25.4946 18.812 26.3089C16.3047 26.8971 13.6953 26.8971 11.188 26.3089C7.71626 25.4946 5.00546 22.7838 4.19109 19.312C3.60297 16.8047 3.60297 14.1954 4.19109 11.6881C5.00546 8.2163 7.71625 5.5055 11.188 4.69113C13.6953 4.103 16.3047 4.103 18.812 4.69113Z" stroke="#618CFA" stroke-width="1.5"/>
<path d="M18.812 4.69113C16.3047 4.103 13.6953 4.103 11.188 4.69113C7.71625 5.5055 5.00546 8.2163 4.19109 11.6881C3.60297 14.1954 3.60297 16.8047 4.19109 19.312C5.00546 22.7838 7.71626 25.4946 11.188 26.3089C13.6953 26.8971 16.3047 26.8971 18.812 26.3089C22.2837 25.4946 24.9945 22.7838 25.8089 19.312" stroke="#1E1E1E" stroke-width="1.5" stroke-linecap="round"/>
<path d="M17.2097 13.2903L12.7903 17.7097M17.2097 17.7097L12.7903 13.2903" stroke="#618CFA" stroke-width="1.5" stroke-linecap="round"/>
</svg>
