<svg width="37" height="36" viewBox="0 0 37 36" fill="none" xmlns="http://www.w3.org/2000/svg">
<path d="M24.5 19.35V25.65C24.5 30.9 22.4 33 17.15 33H10.85C5.6 33 3.5 30.9 3.5 25.65V19.35C3.5 14.1 5.6 12 10.85 12H17.15C22.4 12 24.5 14.1 24.5 19.35Z" fill="#618CFA"/>
<path d="M26.15 3H19.85C15.0341 3 12.8813 4.77968 12.5573 9.11272C12.5158 9.66808 12.97 10.125 13.5269 10.125H17.15C23.45 10.125 26.375 13.05 26.375 19.35V22.9731C26.375 23.53 26.8319 23.9842 27.3873 23.9427C31.7203 23.6187 33.5 21.4659 33.5 16.65V10.35C33.5 5.1 31.4 3 26.15 3Z" fill="#618CFA"/>
</svg>
