<svg width="25" height="24" viewBox="0 0 25 24" fill="none" xmlns="http://www.w3.org/2000/svg">
<path d="M5.49988 19.4987C5.49988 19.7748 5.72374 19.9987 5.99988 19.9987H18.9999C19.276 19.9987 19.4999 19.7748 19.4999 19.4987V18.4987C19.4999 18.2225 19.276 17.9987 18.9999 17.9987H5.99988C5.72374 17.9987 5.49988 18.2225 5.49988 18.4987V19.4987ZM18.6463 9.85222C18.9613 9.53723 18.7382 8.99866 18.2928 8.99866H15.9999C15.7237 8.99866 15.4999 8.77481 15.4999 8.49866V3.49866C15.4999 3.22252 15.276 2.99866 14.9999 2.99866H9.99988C9.72374 2.99866 9.49988 3.22252 9.49988 3.49866V8.49866C9.49988 8.77481 9.27602 8.99866 8.99988 8.99866H6.70698C6.26153 8.99866 6.03845 9.53724 6.35343 9.85222L12.1463 15.6451C12.3416 15.8404 12.6582 15.8404 12.8534 15.6451L18.6463 9.85222Z" fill="#618CFA"/>
</svg>
