<svg width="21" height="20" viewBox="0 0 21 20" fill="none" xmlns="http://www.w3.org/2000/svg">
<g clip-path="url(#clip0_16_289)">
<path fill-rule="evenodd" clip-rule="evenodd" d="M10.5083 0C4.97396 0 0.5 4.50694 0.5 10.0826C0.5 14.5396 3.36662 18.3123 7.34338 19.6476C7.84058 19.748 8.0227 19.4306 8.0227 19.1637C8.0227 18.93 8.00631 18.1288 8.00631 17.2939C5.22225 17.895 4.64249 16.092 4.64249 16.092C4.19508 14.9235 3.53215 14.6232 3.53215 14.6232C2.62092 14.0055 3.59852 14.0055 3.59852 14.0055C4.6093 14.0723 5.13969 15.0405 5.13969 15.0405C6.03432 16.5761 7.47592 16.1422 8.05588 15.8751C8.13865 15.224 8.40394 14.7733 8.68563 14.523C6.46514 14.2893 4.12891 13.4213 4.12891 9.54836C4.12891 8.44662 4.52634 7.54523 5.15608 6.8442C5.05672 6.59386 4.70866 5.5587 5.25564 4.17322C5.25564 4.17322 6.10069 3.90608 8.0061 5.20818C8.82188 4.98747 9.66317 4.8752 10.5083 4.87426C11.3533 4.87426 12.2148 4.99123 13.0102 5.20818C14.9159 3.90608 15.7609 4.17322 15.7609 4.17322C16.3079 5.5587 15.9596 6.59386 15.8603 6.8442C16.5066 7.54523 16.8876 8.44662 16.8876 9.54836C16.8876 13.4213 14.5514 14.2725 12.3143 14.523C12.679 14.8401 12.9936 15.441 12.9936 16.3926C12.9936 17.7446 12.9773 18.8298 12.9773 19.1635C12.9773 19.4306 13.1596 19.748 13.6566 19.6478C17.6333 18.3121 20.5 14.5396 20.5 10.0826C20.5163 4.50694 16.026 0 10.5083 0Z" fill="#618CFA"/>
</g>
<defs>
<clipPath id="clip0_16_289">
<rect width="20" height="20" fill="white" transform="translate(0.5)"/>
</clipPath>
</defs>
</svg>
