<svg width="37" height="36" viewBox="0 0 37 36" fill="none" xmlns="http://www.w3.org/2000/svg">
<path d="M13.0176 9.83454C12.828 10.0397 12.5695 10.1551 12.2997 10.1551H11.3385C10.1282 10.1551 8.92645 10.3726 7.78352 10.7984C5.59999 11.6119 4.01098 13.642 3.64694 16.0832L3.63716 16.1488C3.45428 17.3752 3.45428 18.6248 3.63716 19.8512L3.64694 19.9168C4.01098 22.358 5.59999 24.3881 7.78352 25.2016C8.92645 25.6274 10.1282 25.8449 11.3385 25.8449H12.2997C12.5695 25.8449 12.828 25.9603 13.0176 26.1655L13.7229 26.9286C16.4404 29.8688 21.1217 28.478 22.0305 24.4604C22.991 20.2147 22.991 15.7853 22.0305 11.5396C21.1217 7.52197 16.4404 6.1312 13.7229 9.07145L13.0176 9.83454Z" fill="#618CFA"/>
<path d="M28.3622 8.94851C28.7723 8.42334 29.503 8.353 29.9942 8.79138C32.1666 10.7301 33.5 14.1998 33.5 18C33.5 21.8002 32.1666 25.2699 29.9942 27.2087C29.503 27.647 28.7723 27.5767 28.3622 27.0515C27.9522 26.5264 28.018 25.7453 28.5092 25.3069C30.0308 23.949 31.1827 21.257 31.1827 18C31.1827 14.7431 30.0308 12.0511 28.5092 10.6932C28.018 10.2548 27.9522 9.47367 28.3622 8.94851Z" fill="#618CFA"/>
<path d="M26.8055 13.6668C26.2733 13.2869 25.5539 13.4401 25.1985 14.009C24.8431 14.5779 24.9864 15.3471 25.5186 15.727C26.0931 16.1372 26.5482 16.9664 26.5482 18C26.5482 19.0337 26.0931 19.8628 25.5186 20.273C24.9864 20.653 24.8431 21.4221 25.1985 21.991C25.5539 22.5599 26.2733 22.7131 26.8055 22.3332C28.0779 21.4247 28.8655 19.7892 28.8655 18C28.8655 16.2108 28.0779 14.5753 26.8055 13.6668Z" fill="#618CFA"/>
</svg>
