<svg width="48" height="48" viewBox="0 0 48 48" fill="none" xmlns="http://www.w3.org/2000/svg">
<path d="M6.59402 10.4676C7.04487 8.54558 8.54559 7.04486 10.4676 6.59402V6.59402C12.1333 6.20331 13.8667 6.20331 15.5324 6.59402V6.59402C17.4544 7.04486 18.9551 8.54559 19.406 10.4676V10.4676C19.7967 12.1333 19.7967 13.8667 19.406 15.5324V15.5324C18.9551 17.4544 17.4544 18.9551 15.5324 19.406V19.406C13.8667 19.7967 12.1333 19.7967 10.4676 19.406V19.406C8.54559 18.9551 7.04487 17.4544 6.59402 15.5324V15.5324C6.20331 13.8667 6.20331 12.1333 6.59402 10.4676V10.4676Z" stroke="#111565" stroke-width="1.5"/>
<path d="M6.59402 32.4676C7.04487 30.5456 8.54559 29.0449 10.4676 28.594V28.594C12.1333 28.2033 13.8667 28.2033 15.5324 28.594V28.594C17.4544 29.0449 18.9551 30.5456 19.406 32.4676V32.4676C19.7967 34.1333 19.7967 35.8667 19.406 37.5324V37.5324C18.9551 39.4544 17.4544 40.9551 15.5324 41.406V41.406C13.8667 41.7967 12.1333 41.7967 10.4676 41.406V41.406C8.54559 40.9551 7.04487 39.4544 6.59402 37.5324V37.5324C6.20331 35.8667 6.20331 34.1333 6.59402 32.4676V32.4676Z" stroke="#618CFA" stroke-width="1.5"/>
<path d="M28.594 10.4676C29.0449 8.54558 30.5456 7.04486 32.4676 6.59402V6.59402C34.1333 6.20331 35.8667 6.20331 37.5324 6.59402V6.59402C39.4544 7.04486 40.9551 8.54559 41.406 10.4676V10.4676C41.7967 12.1333 41.7967 13.8667 41.406 15.5324V15.5324C40.9551 17.4544 39.4544 18.9551 37.5324 19.406V19.406C35.8667 19.7967 34.1333 19.7967 32.4676 19.406V19.406C30.5456 18.9551 29.0449 17.4544 28.594 15.5324V15.5324C28.2033 13.8667 28.2033 12.1333 28.594 10.4676V10.4676Z" stroke="#111565" stroke-width="1.5"/>
<path d="M28.594 32.4676C29.0449 30.5456 30.5456 29.0449 32.4676 28.594V28.594C34.1333 28.2033 35.8667 28.2033 37.5324 28.594V28.594C39.4544 29.0449 40.9551 30.5456 41.406 32.4676V32.4676C41.7967 34.1333 41.7967 35.8667 41.406 37.5324V37.5324C40.9551 39.4544 39.4544 40.9551 37.5324 41.406V41.406C35.8667 41.7967 34.1333 41.7967 32.4676 41.406V41.406C30.5456 40.9551 29.0449 39.4544 28.594 37.5324V37.5324C28.2033 35.8667 28.2033 34.1333 28.594 32.4676V32.4676Z" stroke="#111565" stroke-width="1.5"/>
</svg>
