<svg width="25" height="25" viewBox="0 0 25 25" fill="none" xmlns="http://www.w3.org/2000/svg">
<path d="M8.42709 12.1146H3.54168C3.62501 7.24999 4.58334 6.44791 7.57293 4.67707C7.91668 4.46874 8.03126 4.03124 7.82293 3.67707C7.62501 3.33332 7.17709 3.21874 6.83334 3.42707C3.31251 5.51041 2.08334 6.78124 2.08334 12.8333V18.4479C2.08334 20.2292 3.53126 21.6667 5.30209 21.6667H8.42709C10.2604 21.6667 11.6458 20.2812 11.6458 18.4479V15.3229C11.6458 13.5 10.2604 12.1146 8.42709 12.1146Z" fill="white"/>
<path d="M19.6979 12.1146H14.8125C14.8958 7.24999 15.8542 6.44791 18.8438 4.67707C19.1875 4.46874 19.3021 4.03124 19.0937 3.67707C18.8854 3.33332 18.4479 3.21874 18.0938 3.42707C14.5729 5.51041 13.3438 6.78124 13.3438 12.8437V18.4583C13.3438 20.2396 14.7917 21.6771 16.5625 21.6771H19.6875C21.5208 21.6771 22.9063 20.2917 22.9063 18.4583V15.3333C22.9167 13.5 21.5313 12.1146 19.6979 12.1146Z" fill="white"/>
</svg>
