<svg width="25" height="25" viewBox="0 0 25 25" fill="none" xmlns="http://www.w3.org/2000/svg">
<path d="M16.5729 12.8854H21.4583C21.375 17.75 20.4167 18.552 17.4271 20.3229C17.0833 20.5312 16.9688 20.9687 17.1771 21.3229C17.3854 21.6666 17.8229 21.7812 18.1771 21.5729C21.6979 19.4895 22.9271 18.2187 22.9271 12.1562V6.54163C22.9271 4.76038 21.4792 3.32288 19.7083 3.32288H16.5833C14.75 3.32288 13.3646 4.70829 13.3646 6.54163V9.66663C13.3542 11.5 14.7396 12.8854 16.5729 12.8854Z" fill="white"/>
<path d="M5.30209 12.8854H10.1875C10.1042 17.75 9.14584 18.552 6.15626 20.3229C5.81251 20.5312 5.69793 20.9687 5.90626 21.3229C6.11459 21.6666 6.55209 21.7812 6.90626 21.5729C10.4271 19.4895 11.6563 18.2187 11.6563 12.1562V6.54163C11.6563 4.76038 10.2083 3.32288 8.43751 3.32288H5.31251C3.46876 3.32288 2.08334 4.70829 2.08334 6.54163V9.66663C2.08334 11.5 3.46876 12.8854 5.30209 12.8854Z" fill="white"/>
</svg>
