<svg width="25" height="25" viewBox="0 0 25 25" fill="none" xmlns="http://www.w3.org/2000/svg">
<path d="M16.5729 12.8854H21.4583C21.375 17.75 20.4167 18.5521 17.4271 20.3229C17.0833 20.5313 16.9688 20.9688 17.1771 21.3229C17.3854 21.6667 17.8229 21.7813 18.1771 21.5729C21.6979 19.4896 22.9271 18.2188 22.9271 12.1563V6.54167C22.9271 4.76042 21.4792 3.32292 19.7083 3.32292H16.5833C14.75 3.32292 13.3646 4.70833 13.3646 6.54167V9.66667C13.3542 11.5 14.7396 12.8854 16.5729 12.8854Z" fill="#292D32"/>
<path d="M5.30209 12.8854H10.1875C10.1042 17.75 9.14584 18.5521 6.15626 20.3229C5.81251 20.5313 5.69793 20.9688 5.90626 21.3229C6.11459 21.6667 6.55209 21.7813 6.90626 21.5729C10.4271 19.4896 11.6563 18.2188 11.6563 12.1563V6.54167C11.6563 4.76042 10.2083 3.32292 8.43751 3.32292H5.31251C3.46876 3.32292 2.08334 4.70833 2.08334 6.54167V9.66667C2.08334 11.5 3.46876 12.8854 5.30209 12.8854Z" fill="#292D32"/>
</svg>
